<svg id="Layer_1" data-name="Layer 1" xmlns="http://www.w3.org/2000/svg" viewBox="0 0 370.38 150.01"><defs><style>.cls-1{fill:#8261ee;}</style></defs><path class="cls-1" d="M68.06,134.52v12.7h-44V84.63h43.2V97.32H38.52v12.17H63.21v11.72H38.52v13.31Z" transform="translate(-24.06 -84.13)"/><path class="cls-1" d="M91.36,111.43v35.79H76.9V84.63H88.19l29.18,36.76V84.63h14.45v62.59H120.19Z" transform="translate(-24.06 -84.13)"/><path class="cls-1" d="M186.83,141.05a23.54,23.54,0,0,1-16.48,6.61,29.34,29.34,0,0,1-21.2-8.9,30.93,30.93,0,0,1-6.48-10.19,34.89,34.89,0,0,1-2.38-13.09,31.27,31.27,0,0,1,2.38-12.16,31.92,31.92,0,0,1,42-16.47c.7.31,1.38.64,2.06,1a23.7,23.7,0,0,1,9.78,10L185.78,106a15.43,15.43,0,0,0-6.13-6.57A16.87,16.87,0,0,0,171,97.06a14.52,14.52,0,0,0-6.57,1.45,14.82,14.82,0,0,0-5.07,4.06,18.72,18.72,0,0,0-3.26,6,23.17,23.17,0,0,0-1.15,7.4,21.78,21.78,0,0,0,1.24,7.5,18.35,18.35,0,0,0,3.43,5.95,15.57,15.57,0,0,0,12,5.33q8.46,0,15.25-7.85V125H174.68V114.51h24.15v32.71h-12Z" transform="translate(-24.06 -84.13)"/><path class="cls-1" d="M208.34,147.22V84.63H222.8v49.89h30.33v12.7Z" transform="translate(-24.06 -84.13)"/><path class="cls-1" d="M259.91,147.22V84.63h14.46v62.59Z" transform="translate(-24.06 -84.13)"/><path class="cls-1" d="M323.92,103a8.9,8.9,0,0,0-1.85-1.32,35.53,35.53,0,0,0-4-2,38.75,38.75,0,0,0-5.2-1.85,20.27,20.27,0,0,0-5.64-.79q-7.77,0-7.76,5.2a4.15,4.15,0,0,0,.84,2.65,7.58,7.58,0,0,0,2.46,1.89,23.8,23.8,0,0,0,4.1,1.54l5.73,1.59a72.66,72.66,0,0,1,8.11,2.69,21.3,21.3,0,0,1,6.13,3.61,14.51,14.51,0,0,1,3.88,5.25,18.19,18.19,0,0,1,1.37,7.4,18.66,18.66,0,0,1-2,9,16.82,16.82,0,0,1-5.24,5.91,22.12,22.12,0,0,1-7.5,3.26,37.63,37.63,0,0,1-8.72,1,50.61,50.61,0,0,1-7.06-.53,53.61,53.61,0,0,1-7-1.55,58.19,58.19,0,0,1-6.66-2.42,38.14,38.14,0,0,1-6-3.26l6.35-12.61a13.48,13.48,0,0,0,2.29,1.68,36.31,36.31,0,0,0,4.81,2.46,49.73,49.73,0,0,0,6.39,2.21,26.93,26.93,0,0,0,7.14,1q7.67,0,7.67-4.67a3.9,3.9,0,0,0-1.15-2.91,10.43,10.43,0,0,0-3.17-2.08,34.27,34.27,0,0,0-4.8-1.71l-6-1.77a52.65,52.65,0,0,1-7.5-2.86,20,20,0,0,1-5.24-3.57,13.1,13.1,0,0,1-3.09-4.68,17.51,17.51,0,0,1-1-6.17,19.58,19.58,0,0,1,1.85-8.72,18.72,18.72,0,0,1,5-6.4,21.79,21.79,0,0,1,7.36-3.92,29,29,0,0,1,8.86-1.32,33,33,0,0,1,6.43.62,47.36,47.36,0,0,1,6.09,1.58,42.46,42.46,0,0,1,5.42,2.21c1.67.82,3.22,1.64,4.63,2.46Z" transform="translate(-24.06 -84.13)"/><path class="cls-1" d="M394.44,84.63v62.59H380V121.57H355.06v25.65H340.6V84.63h14.46v24.24H380V84.63Z" transform="translate(-24.06 -84.13)"/><path class="cls-1" d="M24.06,234.06v-62.6H38.52v49.9H68.85v12.7Z" transform="translate(-24.06 -84.13)"/><path class="cls-1" d="M92.68,171.46h13l22.83,62.6H113.75l-4.85-14H89.42l-4.76,14H69.85Zm13.84,38.62L99.21,188l-7.5,22.13Z" transform="translate(-24.06 -84.13)"/><path class="cls-1" d="M186.48,218a14.32,14.32,0,0,1-1.67,7.05,14.66,14.66,0,0,1-4.59,5,21.65,21.65,0,0,1-6.79,3,32.36,32.36,0,0,1-8.2,1h-30.5v-62.6h34.82a12.27,12.27,0,0,1,5.91,1.41,14.62,14.62,0,0,1,4.5,3.66,16.64,16.64,0,0,1,2.86,5.12,17.19,17.19,0,0,1,1,5.86,16.9,16.9,0,0,1-2.25,8.46,14.27,14.27,0,0,1-6.75,6,16.15,16.15,0,0,1,8.51,5.64A16.54,16.54,0,0,1,186.48,218Zm-37.29-34.2v12.95h14.19a6.33,6.33,0,0,0,4.23-1.58,6.15,6.15,0,0,0,1.86-4.94,6.52,6.52,0,0,0-1.64-4.76,5.21,5.21,0,0,0-3.92-1.67Zm22.57,31.29a7.5,7.5,0,0,0-1.68-4.94,5.21,5.21,0,0,0-4.23-2H149.19v13.66h16a6.38,6.38,0,0,0,4.68-1.85,6.57,6.57,0,0,0,1.89-4.87Z" transform="translate(-24.06 -84.13)"/><rect class="cls-1" x="192.93" y="87.32" width="4.07" height="62.59"/><path class="cls-1" d="M273.82,191.56a6.53,6.53,0,0,1-.68,3,6.91,6.91,0,0,1-1.83,2.23,8.27,8.27,0,0,1-2.7,1.4,11.18,11.18,0,0,1-3.3.49H252.13v-27.6h14.23a5.48,5.48,0,0,1,2.6.62,6.24,6.24,0,0,1,2,1.61,7.17,7.17,0,0,1,1.26,2.26,7.31,7.31,0,0,1,.45,2.54,7.41,7.41,0,0,1-1,3.79,6.32,6.32,0,0,1-2.93,2.62,6.94,6.94,0,0,1,3.75,2.55A7.31,7.31,0,0,1,273.82,191.56Zm-17.34-16.71V183h8a3.66,3.66,0,0,0,1.5-.31,4.4,4.4,0,0,0,1.2-.84,3.86,3.86,0,0,0,.82-1.26,4.38,4.38,0,0,0,.29-1.63,4.31,4.31,0,0,0-1-2.94,3.26,3.26,0,0,0-2.57-1.14Zm12.87,15.86a4.74,4.74,0,0,0-.29-1.63,4.82,4.82,0,0,0-.78-1.36,3.38,3.38,0,0,0-1.19-.93,3.19,3.19,0,0,0-1.51-.35h-9.1v8.43h8.83a3.94,3.94,0,0,0,1.59-.33,4.39,4.39,0,0,0,1.28-.89A4.21,4.21,0,0,0,269.35,190.71Z" transform="translate(-24.06 -84.13)"/><path class="cls-1" d="M289.24,182a9.58,9.58,0,0,0-4.41,1.14,6,6,0,0,0-2.74,3v12.53h-4.27V178.35h4v4.54a9,9,0,0,1,2.74-3.36,6.56,6.56,0,0,1,3.64-1.38h.64a1.62,1.62,0,0,1,.44,0Z" transform="translate(-24.06 -84.13)"/><path class="cls-1" d="M297.48,199.06a7.51,7.51,0,0,1-2.74-.49,6.58,6.58,0,0,1-2.17-1.34,6.09,6.09,0,0,1-2-4.52,5.38,5.38,0,0,1,.63-2.61,5.94,5.94,0,0,1,1.76-2,8.38,8.38,0,0,1,2.72-1.32,11.69,11.69,0,0,1,3.48-.47,15.08,15.08,0,0,1,2.84.26,13.14,13.14,0,0,1,2.53.68v-1.4a4.67,4.67,0,0,0-1.29-3.52,5,5,0,0,0-3.69-1.26,8.79,8.79,0,0,0-3.21.6,16,16,0,0,0-3.24,1.73l-1.32-2.72A14.4,14.4,0,0,1,300,178a9.29,9.29,0,0,1,6.53,2.13,8,8,0,0,1,2.33,6.14v7.35c0,.91.37,1.37,1.13,1.4v3.65a9.5,9.5,0,0,1-1.07.15H308a2.54,2.54,0,0,1-2.76-2.21l-.11-1.28a9.41,9.41,0,0,1-3.36,2.74A10.1,10.1,0,0,1,297.48,199.06Zm1.17-3.15a8,8,0,0,0,2.93-.56,5.15,5.15,0,0,0,2.16-1.58,2,2,0,0,0,.82-1.47v-2.68a12.55,12.55,0,0,0-2.32-.67,12.82,12.82,0,0,0-2.39-.23,6.46,6.46,0,0,0-3.75,1,3,3,0,0,0-1.45,2.63,3.3,3.3,0,0,0,1.12,2.54,4.1,4.1,0,0,0,2.88,1Z" transform="translate(-24.06 -84.13)"/><path class="cls-1" d="M332.22,198.71H328V187.28a7,7,0,0,0-1-4.14,3.33,3.33,0,0,0-2.86-1.34,4.79,4.79,0,0,0-1.79.35,6.55,6.55,0,0,0-1.69,1,7.54,7.54,0,0,0-1.41,1.52,6.24,6.24,0,0,0-.94,1.92v12.12H314V170.3h4.27v12.13A8.46,8.46,0,0,1,325.8,178a6.2,6.2,0,0,1,3.13.68,5.33,5.33,0,0,1,2,1.8,7.25,7.25,0,0,1,1,2.63,16,16,0,0,1,.29,3.16Z" transform="translate(-24.06 -84.13)"/><path class="cls-1" d="M337.2,175v-4.7h4.27V175Zm0,23.67V178.35h4.27v20.36Z" transform="translate(-24.06 -84.13)"/><path class="cls-1" d="M377.69,198.71h-4.28V187.28a7.24,7.24,0,0,0-.93-4.15,3.09,3.09,0,0,0-2.72-1.33,4.79,4.79,0,0,0-3.32,1.34,7.55,7.55,0,0,0-2.16,3.48v12.09h-4.22V187.28a7.29,7.29,0,0,0-.93-4.17,3.12,3.12,0,0,0-2.69-1.31,4.94,4.94,0,0,0-3.34,1.33,7.3,7.3,0,0,0-2.17,3.45v12.13h-4.28V178.35h3.89v4.08a8.61,8.61,0,0,1,3.16-3.29,8.73,8.73,0,0,1,4.49-1.14,5.67,5.67,0,0,1,4,1.32,5.52,5.52,0,0,1,1.81,3.3,9.28,9.28,0,0,1,3.23-3.44,8.23,8.23,0,0,1,4.43-1.18,5.71,5.71,0,0,1,3,.68,5.26,5.26,0,0,1,1.89,1.8,7.43,7.43,0,0,1,1,2.63,18.55,18.55,0,0,1,.27,3.16Z" transform="translate(-24.06 -84.13)"/><path class="cls-1" d="M273.43,233.71V217.23l-6,12h-3.37l-6-12v16.48h-6.37V206.15h6.91l7.15,14.42,7.19-14.42h6.88v27.56Z" transform="translate(-24.06 -84.13)"/><path class="cls-1" d="M297.52,218.71a12.11,12.11,0,0,0-4.08.74,5,5,0,0,0-2.64,2.1v12.16h-6.22v-20.4h5.71v4.12a8.63,8.63,0,0,1,2.7-3.23,6.19,6.19,0,0,1,3.52-1.2h.62a1.27,1.27,0,0,1,.39,0Z" transform="translate(-24.06 -84.13)"/><path class="cls-1" d="M300.12,211v-5.64h6.22V211Zm0,22.73v-20.4h6.22v20.37Z" transform="translate(-24.06 -84.13)"/><path class="cls-1" d="M318.66,234.13a16.56,16.56,0,0,1-5.13-.84,11.69,11.69,0,0,1-4.27-2.42l2.21-3.81a19.71,19.71,0,0,0,3.63,2,9.43,9.43,0,0,0,3.4.7,3.4,3.4,0,0,0,1.87-.43,1.4,1.4,0,0,0,.66-1.24,1.46,1.46,0,0,0-.83-1.3,12.15,12.15,0,0,0-2.94-1c-1.37-.39-2.53-.77-3.48-1.13a10,10,0,0,1-2.31-1.21,4,4,0,0,1-1.28-1.51,5,5,0,0,1-.39-2,6.43,6.43,0,0,1,.62-2.84,6.5,6.5,0,0,1,1.71-2.18,8,8,0,0,1,2.59-1.39A9.89,9.89,0,0,1,318,213a14.19,14.19,0,0,1,4.29.62,10.72,10.72,0,0,1,3.87,2.26l-2.41,3.73a15.61,15.61,0,0,0-3.11-1.75,7,7,0,0,0-2.64-.55,3.28,3.28,0,0,0-1.71.41,1.5,1.5,0,0,0-.47,2.08,1.52,1.52,0,0,0,.53.51,13.91,13.91,0,0,0,2.82.93c1.45.39,2.67.78,3.67,1.16a9.36,9.36,0,0,1,2.43,1.31,4.36,4.36,0,0,1,1.36,1.65,5.21,5.21,0,0,1,.42,2.21,5.85,5.85,0,0,1-2.25,4.82A9.61,9.61,0,0,1,318.66,234.13Z" transform="translate(-24.06 -84.13)"/><path class="cls-1" d="M338.06,234.13a16.56,16.56,0,0,1-5.13-.84,11.69,11.69,0,0,1-4.27-2.42l2.21-3.81a19.71,19.71,0,0,0,3.63,2,9.48,9.48,0,0,0,3.41.7,3.45,3.45,0,0,0,1.86-.43,1.4,1.4,0,0,0,.66-1.24,1.46,1.46,0,0,0-.83-1.3,12.15,12.15,0,0,0-2.94-1c-1.37-.39-2.53-.77-3.48-1.13a10,10,0,0,1-2.31-1.21,4,4,0,0,1-1.28-1.51,5,5,0,0,1-.39-2,6.43,6.43,0,0,1,.62-2.84,6.5,6.5,0,0,1,1.71-2.18,8,8,0,0,1,2.59-1.39,9.89,9.89,0,0,1,3.24-.51,14.19,14.19,0,0,1,4.29.62,10.72,10.72,0,0,1,3.87,2.26l-2.41,3.73a15.61,15.61,0,0,0-3.11-1.75,7,7,0,0,0-2.64-.55,3.28,3.28,0,0,0-1.71.41,1.5,1.5,0,0,0-.47,2.08,1.52,1.52,0,0,0,.53.51,13.91,13.91,0,0,0,2.82.93c1.45.39,2.67.78,3.67,1.16a9.36,9.36,0,0,1,2.43,1.31,4.36,4.36,0,0,1,1.36,1.65,5.22,5.22,0,0,1,.43,2.21,5.85,5.85,0,0,1-2.26,4.82A9.61,9.61,0,0,1,338.06,234.13Z" transform="translate(-24.06 -84.13)"/><path class="cls-1" d="M355.19,234.13a8,8,0,0,1-2.82-.49,6.5,6.5,0,0,1-3.71-3.42,6.26,6.26,0,0,1-.54-2.58,6,6,0,0,1,.64-2.76,6.3,6.3,0,0,1,1.8-2.14,9,9,0,0,1,2.76-1.4,11.48,11.48,0,0,1,3.54-.5,13,13,0,0,1,2.49.21,8.15,8.15,0,0,1,2.09.64v-.93c0-2.36-1.36-3.53-4.08-3.53a8.88,8.88,0,0,0-3.18.56,14.77,14.77,0,0,0-3.19,1.69l-1.82-3.89a15.4,15.4,0,0,1,8.82-2.66c3.08,0,5.46.72,7.15,2.18a8,8,0,0,1,2.52,6.37v5.23A2.21,2.21,0,0,0,368,228a1.56,1.56,0,0,0,1,.44v5.26a11.87,11.87,0,0,1-1.47.25c-.44,0-.85.06-1.21.06a4.38,4.38,0,0,1-2.64-.68,3,3,0,0,1-1.13-1.92l-.11-.93a9.58,9.58,0,0,1-3.25,2.68A8.89,8.89,0,0,1,355.19,234.13Zm1.87-4.42a5.93,5.93,0,0,0,2-.35,4.54,4.54,0,0,0,1.57-.93,2,2,0,0,0,.89-1.48V225a9,9,0,0,0-1.76-.49,9.56,9.56,0,0,0-1.77-.17,4.71,4.71,0,0,0-2.82.78,2.35,2.35,0,0,0-1.11,2,2.31,2.31,0,0,0,.86,1.84A3.32,3.32,0,0,0,357.06,229.71Z" transform="translate(-24.06 -84.13)"/></svg>